<?xml version="1.0" encoding="utf-8"?>
<!-- Generator: Adobe Illustrator 19.0.0, SVG Export Plug-In . SVG Version: 6.00 Build 0)  -->
<svg version="1.1"
	 id="Layer_1" xmlns:dc="http://purl.org/dc/elements/1.1/" xmlns:cc="http://creativecommons.org/ns#" xmlns:rdf="http://www.w3.org/1999/02/22-rdf-syntax-ns#" xmlns:svg="http://www.w3.org/2000/svg" xmlns:sodipodi="http://sodipodi.sourceforge.net/DTD/sodipodi-0.dtd" xmlns:inkscape="http://www.inkscape.org/namespaces/inkscape" sodipodi:docname="logo.svg" inkscape:version="0.91 r13725"
	 xmlns="http://www.w3.org/2000/svg" xmlns:xlink="http://www.w3.org/1999/xlink" x="0px" y="0px" viewBox="-516 94.5 364 73.5"
	 style="enable-background:new -516 94.5 364 73.5;" xml:space="preserve">
<style type="text/css">
	.st0{fill:#FFFFFF;}
	.st1{fill:#BFD1DA;}
	.st2{fill:#7CC734;}
	.st3{fill:#3E7FCA;}
	.st4{fill:#EB6E2E;}
	.st5{display:none;}
</style>
<sodipodi:namedview  inkscape:cy="9.663581" inkscape:cx="52.120044" inkscape:zoom="8" showgrid="false" guidetolerance="10" gridtolerance="10" objecttolerance="10" bordercolor="#666666" pagecolor="#ffffff" borderopacity="1" id="namedview4152" inkscape:current-layer="Layer_1" inkscape:window-maximized="1" inkscape:window-y="-8" inkscape:window-x="1912" inkscape:window-height="1137" inkscape:window-width="1920" inkscape:pageshadow="2" inkscape:pageopacity="0">
	</sodipodi:namedview>
<g id="XMLID_22_">
	<path id="XMLID_20_" class="st0" d="M-368.1,114.4v-1.6c0-0.4-0.2-0.8-1-0.8c-0.8-0.2-2.6-0.2-4.3-0.2c-4.5,0-7.3,1.6-7.3,6.6v28.3
		c0,0.6,0.4,1,1,1h2.2c0.6,0,1-0.4,1-1v-21.9h7.5c0.6,0,0.8-0.4,0.8-0.8v-1.6c0-0.6-0.4-0.8-0.8-0.8h-7.7v-3.2
		c0-2.8,0.6-3.2,3.3-3.2h4.3C-368.5,115-368.1,114.8-368.1,114.4L-368.1,114.4z"/>
	<path id="XMLID_19_" class="st0" d="M-352.8,124v-2.2c0-0.6-0.4-0.8-1-0.8c-4.1,0-7.3,0.2-10,1.4c-0.6,0.2-0.8,0.6-0.8,1v22.9
		c0,0.6,0.4,1,0.8,1h2.4c0.6,0,0.8-0.4,0.8-1v-21.1c1.8-0.4,3.5-0.4,6.7-0.4C-352.8,124.8-352.8,124.6-352.8,124L-352.8,124z"/>
	<path id="XMLID_42_" class="st0" d="M-331.8,145.7v-22.3c0-0.6-0.2-0.8-1-1c-2.6-0.6-5.9-1-9-1c-7.1,0-10.6,4.6-10.6,11.7v3.2
		c0,7,3.3,11.7,10.6,11.7c2.9,0,6.3-0.4,9-1C-332,146.5-331.8,146.3-331.8,145.7L-331.8,145.7z M-336.1,143.9
		c-1.4,0.2-3.7,0.4-5.7,0.4c-4.7,0-6.3-3.2-6.3-8.2v-3.2c0-5,1.4-8.2,6.3-8.2c2,0,4.3,0.2,5.7,0.4V143.9L-336.1,143.9z"/>
	<path id="XMLID_16_" class="st0" d="M-297,146.5v-17.1c0-4.8-2.9-8.2-8.6-8.2h-1c-2.9,0-4.9,0.4-6.3,1.6c-1.4-1.4-3.5-1.6-6.3-1.6
		h-1c-5.7,0-8.6,3.4-8.6,8.2v17.1c0,0.6,0.4,1,0.8,1h2.4c0.6,0,0.8-0.4,0.8-1v-17.1c0-4,1.8-4.6,4.3-4.6h1c3.1,0,4.1,0.6,4.1,3.2
		v18.5c0,0.6,0.4,1,0.8,1h2.4c0.6,0,0.8-0.4,0.8-1v-18.5c0-2.6,1-3.2,4.1-3.2h1c2.6,0,4.3,0.6,4.3,4.6v17.1c0,0.6,0.4,1,0.8,1h2.4
		C-297.2,147.6-297,147.2-297,146.5L-297,146.5z"/>
	<path id="XMLID_38_" class="st0" d="M-273.4,134.9v-2.6c0-6.6-3.7-11.1-10.6-11.1s-10.8,4.2-10.8,11.1v4.2c0,8.8,5.3,11.5,11,11.5
		c3.3,0,5.9-0.2,8.6-0.8c0.8-0.2,1-0.4,1-1v-1.6c0-0.4-0.4-0.6-0.8-0.6h-0.2c-2.2,0.4-5.7,0.6-8.6,0.6c-4.5,0-6.7-2-6.7-7.6v-1h16.1
		C-273.8,135.9-273.4,135.5-273.4,134.9L-273.4,134.9z M-277.6,132.7h-12.8v-0.4c0-5,2.2-7.4,6.5-7.4s6.3,2,6.3,7.4V132.7
		L-277.6,132.7z"/>
	<path id="XMLID_13_" class="st0" d="M-238.3,137.3v-14.9c0-0.6-0.4-1-1-1h-2.2c-0.6,0-1,0.4-1,1v14.9c0,5.2-2,7-5.9,7
		c-1.2,0-2.4-0.2-3.9-0.6v-21.3c0-0.6-0.4-1-1-1h-2.4c-0.6,0-1,0.4-1,1v21.3c-1.4,0.4-2.6,0.6-3.9,0.6c-4.1,0-5.9-1.8-5.9-7v-14.9
		c0-0.6-0.4-1-1-1h-2.2c-0.6,0-1,0.4-1,1v14.9c0,8.4,4.7,10.7,9.8,10.7c2.4,0,4.5-0.4,6.3-1.2c2,0.8,3.9,1.2,6.3,1.2
		C-243,148-238.3,145.7-238.3,137.3L-238.3,137.3z"/>
	<path id="XMLID_34_" class="st0" d="M-213.7,136.3v-3.6c0-7-3.7-11.5-10.8-11.5c-7.1,0-10.8,4.6-10.8,11.5v3.6
		c0,7,3.7,11.5,10.8,11.5C-217.3,148-213.7,143.3-213.7,136.3L-213.7,136.3z M-217.9,136.3c0,4.8-2,7.8-6.5,7.8
		c-4.5,0-6.5-3-6.5-7.8v-3.6c0-4.8,2-7.8,6.5-7.8c4.5,0,6.5,3,6.5,7.8V136.3L-217.9,136.3z"/>
	<path id="XMLID_10_" class="st0" d="M-198.6,124v-2.2c0-0.6-0.4-0.8-1-0.8c-4.1,0-7.3,0.2-10,1.4c-0.6,0.2-0.8,0.6-0.8,1v22.9
		c0,0.6,0.4,1,0.8,1h2.4c0.6,0,0.8-0.4,0.8-1v-21.1c1.8-0.4,3.5-0.4,6.7-0.4C-198.6,124.8-198.6,124.6-198.6,124L-198.6,124z"/>
	<path id="XMLID_8_" class="st0" d="M-177,147c0-0.2,0-0.4-0.2-0.4l-10.8-12.7l10.6-11.3c0.2-0.2,0.2-0.4,0.2-0.6
		c0-0.2-0.2-0.6-0.8-0.6h-3.1c-0.4,0-0.6,0-1,0.4l-9.6,10.7V113c0-0.6-0.4-1-1-1h-2.2c-0.6,0-1,0.4-1,1v33.8c0,0.6,0.4,1,1,1h2.2
		c0.6,0,1-0.4,1-1v-11.3l9.6,11.7c0.4,0.4,0.6,0.6,1,0.6h3.5C-177.2,147.6-177,147.4-177,147L-177,147z"/>
	<path id="XMLID_26_" class="st1" d="M-387.8,146.3v-30c0-0.6-0.4-1-1-1h-4.5c-0.6,0-1,0.4-1,1v30c0,0.6,0.4,1,1,1h4.5
		C-388.3,147.2-387.8,146.7-387.8,146.3L-387.8,146.3z M-411.1,147.2v-31.6c-2.4,0-6.3,1.6-6.3,5v21.5c-1.4,0.2-3.5,0.4-4.7,0.4
		c-4.1,0-5.1-2.8-5.1-6.6v-15.5c-0.2-3.8-4.5-4.8-6.3-4.8v20.1c0,7.2,3.7,11.9,11.4,11.9c1.2,0,3.7-0.4,4.7-0.6v0.4
		c1,6.2-6.7,3.8-10.8,3.4c-3.1,0-5.1,2.4-5.7,5.2c1.8,0.6,7.5,1.2,11.6,1.6C-414.9,157.8-411.1,153.8-411.1,147.2L-411.1,147.2z
		 M-399.5,146.3v-30c0-0.6-0.4-1-1-1h-4.5c-0.6,0-1,0.4-1,1v30c0,0.6,0.4,1,1,1h4.5C-399.9,147.2-399.5,146.7-399.5,146.3
		L-399.5,146.3z M-402.7,106.9c1.8,0,3.3,1.4,3.3,3.2c0,1.8-1.4,3.2-3.3,3.2c-1.8,0-3.3-1.4-3.3-3.2
		C-406,108.5-404.5,106.9-402.7,106.9L-402.7,106.9z M-390.9,106.9c1.8,0,3.3,1.4,3.3,3.2c0,1.8-1.4,3.2-3.3,3.2
		c-1.8,0-3.3-1.4-3.3-3.2C-394.2,108.5-392.7,106.9-390.9,106.9L-390.9,106.9z"/>
</g>
<g id="g4175" transform="matrix(0.50580295,0,0,-0.50580295,-72.888583,177.03598)" inkscape:label="yii_logo_4 cveta">
	<g id="g4177">
		<g>
			<g id="g4179">
				<g id="g4185" transform="translate(183.9946,331.1367)">
					<path id="path4187" inkscape:connector-curvature="0" class="st2" d="M-973.1-212.2c-6.3,17.9,12.1,37.1,27.2,37.7
						c9.1-4.7,16.8-16.9,16.5-33.6c-1.2-20.5-15.9-38.1-31.9-54.4C-962.2-242.6-966.4-230-973.1-212.2"/>
				</g>
				<g id="g4189" transform="translate(166.4893,282.874)">
					<path id="path4191" inkscape:connector-curvature="0" class="st3" d="M-991.3-261c-2.5,20,5.7,37.1,13.9,47.5
						c3.9,4.9,6.9,9.3,9.1,13.4c4.3-1.8,15.8-7.8,22.2-17.5C-947-231.6-957.5-257.2-991.3-261"/>
				</g>
				<g id="g4193" transform="translate(160.2344,320.6611)">
					<path id="path4195" inkscape:connector-curvature="0" class="st4" d="M-997.8-222.8c-26.8,7.4-33.5,30.7-32.3,46.3
						c26.1,10.4,54.1-0.3,70.3-22.5c11.4-15.6,18.5-35.6,19.9-53.1c-7.8,10.1-17.6,16-30.2,20.6
						C-978.5-228.3-986.5-226.2-997.8-222.8"/>
				</g>
				<g id="g4197" transform="translate(459.5723,301.9727)" class="st5">
				</g>
				<g id="g4201" transform="translate(262.3789,302.3389)" class="st5">
				</g>
				<g id="g4205" transform="translate(259.4429,340.7461)" class="st5">
				</g>
				<g id="g4209" transform="translate(240.5635,301.4668)" class="st5">
				</g>
			</g>
		</g>
	</g>
</g>
</svg>
